<svg id="Layer_1" data-name="Layer 1" xmlns="http://www.w3.org/2000/svg" viewBox="0 0 1200 1200"><defs><style>.cls-1{fill:#e9e8e8;}.cls-2,.cls-9{fill:#fff;}.cls-3{fill:#1d252e;}.cls-4,.cls-7,.cls-8{fill:none;}.cls-4,.cls-6,.cls-7,.cls-8,.cls-9{stroke:#1d252e;}.cls-4,.cls-6,.cls-8,.cls-9{stroke-linecap:round;stroke-linejoin:round;}.cls-4,.cls-6,.cls-7,.cls-9{stroke-width:4px;}.cls-5,.cls-6{fill:#9dd5c0;}.cls-7{stroke-miterlimit:10;}.cls-8{stroke-width:2px;}</style></defs><path id="Path-141" class="cls-1" d="M758.14,467.29C647.45,392.45,393.16,193.21,260,309.14S199.75,981.74,592,921.8c147.36-22.52,370-34.95,401.22-104C1045.12,702.94,827.25,514,758.14,467.29Z"/><polygon class="cls-2" points="737.34 948.19 698.07 948.19 213.24 948.19 213.24 251.44 698.07 251.44 737.34 251.44 737.34 948.19"/><polyline class="cls-3" points="730.99 251.44 770.25 251.44 770.25 948.19 730.99 948.19"/><polyline class="cls-4" points="698.07 948.19 213.23 948.19 213.23 789.64 213.23 767.32 213.23 251.44 698.07 251.44"/><polygon class="cls-3" points="544.96 384.72 544.96 389.89 450.56 451.06 356.18 384.72 544.96 384.72"/><rect class="cls-2" x="374.87" y="297.7" width="154.35" height="166.56"/><polyline class="cls-4" points="529.22 376.48 529.22 297.7 374.87 297.7 374.87 373.77"/><polygon class="cls-5" points="544.96 389.89 544.96 517.41 356.18 517.41 356.18 384.72 450.56 451.06 544.96 389.89"/><polyline class="cls-6" points="367.01 496.61 450.57 428.47 529.22 500.06"/><line class="cls-4" x1="401.12" y1="332.35" x2="501.61" y2="332.35"/><line class="cls-4" x1="401.12" y1="352.72" x2="501.61" y2="352.72"/><line class="cls-4" x1="401.12" y1="373.09" x2="501.61" y2="373.09"/><path class="cls-3" d="M327.71,644.44c0,12.1-1.45,22.23-17.61,22.23a47.47,47.47,0,0,1-7.06-.59V655a34.24,34.24,0,0,0,4.53.29c5.22,0,7.15-1.52,7.15-9.13V568.67h13Z"/><path class="cls-3" d="M384.07,593.57V640.3c0,17.91-7.51,26.58-23.08,26.58s-21.84-9.24-21.84-26.38v-47c0-17.66,8.56-26.2,22.68-26.2C376.36,567.31,384.07,576.34,384.07,593.57Zm-31.69-1.05v49.36c0,9.24,3.35,13.26,9.2,13.26,6.25,0,9.26-3.81,9.26-13.58v-49.1c0-8.78-2.85-13.31-9.3-13.31C355.48,579.15,352.38,583.34,352.38,592.52Z"/><path class="cls-3" d="M408.76,568.67v96.84h-13V568.67Z"/><path class="cls-3" d="M422.45,665.51V568.67h15.19c4.43,15.46,16.79,64.51,18.05,70.81h.19c-.64-12.38-.73-26-.73-41.86v-29h12.08v96.84H452.59C448.65,651.16,435.34,598,434,592.37h-.14c.68,11.7.75,25.82.75,43.26v29.88Z"/><path class="cls-3" d="M512.6,568.67V643c0,7.46,2.52,12.08,8.93,12.08s8.72-4.78,8.72-12V568.67h13v74.05c0,15.15-6.83,24.16-22,24.16-14.56,0-21.67-8-21.67-24V568.67Z"/><path class="cls-3" d="M565,637.53v5.83c0,8,2.57,12.39,8.72,12.39s8.31-5.31,8.31-13.42c0-10.8-2.34-14.52-12.65-22.61s-15.83-13.28-15.83-27.59c0-12.55,3.78-25,20.3-24.92s19.62,11.46,19.62,22.72v4.88H580.56v-4.53c0-7.29-1.31-11.84-7-11.84s-7.07,4.89-7.07,11.81c0,7.75,1.51,11.12,10.18,17.56,14,10.48,18.41,16.47,18.41,32.62,0,13.69-4.42,26.45-21.76,26.45-17,0-21.35-10.92-21.35-23.68v-5.67Z"/><path class="cls-3" d="M377.45,695.17h14.86v2.57H380.24v18.94h11.28v2.57H380.24v24.54h-2.79Z"/><path class="cls-3" d="M411.25,720.11v23.68h-2.8V695.17H415c7.21,0,10,3.34,10,10.65v2.6c0,5.72-1.56,9.25-4.95,10.34,3.34,1,4.59,3.56,4.59,10,0,4.22-.08,11.86.51,15.06h-2.8c-.58-3.12-.51-11.49-.51-14.77,0-6.68-1-8.91-6.3-8.91Zm0-2.56h4.66c5.29,0,6.25-3.88,6.25-9V705.9c0-5.13-1.66-8.17-7.16-8.17h-3.75Z"/><path class="cls-3" d="M457.09,718.89H446v22.33h12.45l-.45,2.57H443.17V695.17h14.57v2.57H446v18.58h11.13Z"/><path class="cls-3" d="M488.61,718.89H477.48v22.33h12.44l-.44,2.57h-14.8V695.17h14.58v2.57H477.48v18.58h11.13Z"/><path class="cls-3" d="M509.47,729.25l-.3-25.57v-8.51h3v8.58l-.23,25.5Zm-.29,14.54v-4.68h3v4.68Z"/><rect class="cls-7" x="323.98" y="797.44" width="250.18" height="40.64" rx="2.29"/><rect class="cls-7" x="323.98" y="861.28" width="250.18" height="40.64" rx="2.29"/><rect class="cls-3" x="336.65" y="811.04" width="50.7" height="15.89"/><rect class="cls-3" x="399.88" y="811.04" width="107.66" height="15.89"/><line class="cls-7" x1="338.67" y1="875.37" x2="351.13" y2="887.83"/><line class="cls-7" x1="351.13" y1="875.37" x2="338.67" y2="887.83"/><line class="cls-7" x1="362" y1="875.37" x2="374.46" y2="887.83"/><line class="cls-7" x1="374.46" y1="875.37" x2="362" y2="887.83"/><line class="cls-7" x1="385.33" y1="875.37" x2="397.79" y2="887.83"/><line class="cls-7" x1="397.79" y1="875.37" x2="385.33" y2="887.83"/><line class="cls-7" x1="408.66" y1="875.37" x2="421.12" y2="887.83"/><line class="cls-7" x1="421.12" y1="875.37" x2="408.66" y2="887.83"/><line class="cls-7" x1="431.99" y1="875.37" x2="444.44" y2="887.83"/><line class="cls-7" x1="444.44" y1="875.37" x2="431.99" y2="887.83"/><line class="cls-7" x1="455.32" y1="875.37" x2="467.77" y2="887.83"/><line class="cls-7" x1="467.77" y1="875.37" x2="455.32" y2="887.83"/><line class="cls-7" x1="478.64" y1="875.37" x2="491.1" y2="887.83"/><line class="cls-7" x1="491.1" y1="875.37" x2="478.64" y2="887.83"/><line class="cls-7" x1="501.97" y1="875.37" x2="514.43" y2="887.83"/><line class="cls-7" x1="514.43" y1="875.37" x2="501.97" y2="887.83"/><rect class="cls-4" x="652.12" y="297.7" width="42.35" height="22.33"/><rect class="cls-4" x="630.95" y="320.03" width="42.35" height="22.33"/><rect class="cls-4" x="609.77" y="297.7" width="42.35" height="22.33"/><path class="cls-5" d="M232.63,766.4c-4.79-5.94-7.12-14.31-3.56-21.23a26.53,26.53,0,0,1,5.72-6.73c9.8-8.94,24.13-13.24,37-9.14,7.11,2.46,7.24,3.49,3.3,9.69a198.4,198.4,0,0,1-16.48,23.28c-.46.61-1.17,1.39-1.68,2-3.33,3.83-8.55,3.85-13.61,4.16a65.84,65.84,0,0,1-7.1-.16,4.89,4.89,0,0,1-3.55-1.83Z"/><path class="cls-5" d="M232.63,768.23c-6.16.26-16.71.93-20.71-4a180.64,180.64,0,0,1-16-21.76A86.06,86.06,0,0,1,191.5,735a2.81,2.81,0,0,1,1.14-3.83c10.78-5.57,24-4,34.24,2,5,3.09,9.86,6.85,12.86,12a16.6,16.6,0,0,1,1.63,9.33,22.39,22.39,0,0,1-3,8.66c-1.16,2-3,5.09-5.75,5.07Z"/><path class="cls-8" d="M238.76,760q12.3-18.16,34.51-25.76"/><path class="cls-8" d="M230.05,760q-12.3-18.18-34.52-25.77"/><rect class="cls-4" x="234.41" y="767.32" width="42.35" height="22.33"/><rect class="cls-4" x="213.24" y="789.64" width="42.35" height="22.33"/><rect class="cls-4" x="213.23" y="767.32" width="21.19" height="22.32"/><rect class="cls-4" x="255.58" y="428.74" width="42.35" height="22.33"/><rect class="cls-4" x="234.4" y="451.06" width="42.35" height="22.33"/><rect class="cls-4" x="213.23" y="428.74" width="42.35" height="22.33"/><path class="cls-5" d="M645.76,688.21c-5.43-5.35-12.9-10.47-20.83-9-7.38,1.82-14.06,3.95-20.63,8.16-4.34,2.68-8.53,5.81-12.91,9l-.73-.68c5.89-9.22,14.85-17.38,25.76-20,4.31-.92,8.67.32,12.69,1.75,6.53,2,12.09,5.83,17.31,10.06l-.66.75Z"/><path class="cls-5" d="M645.62,688c-2.23-7.29-6.38-15.34-14.06-17.8-2.46-.78-4.91-1.09-7.25-1.6-9.87-2.34-20.22-.58-30.39.73l-.32-1c9.56-5.32,21.32-8.23,32.18-5.37,4.22,1.24,7.47,4.4,10.33,7.57,4.82,4.81,7.87,10.87,10.45,17.08l-.94.34Z"/><rect class="cls-4" x="626.69" y="687.84" width="42.35" height="22.33" transform="translate(1295.73 1398) rotate(180)"/><rect class="cls-9" x="647.87" y="665.51" width="42.35" height="22.33" transform="translate(1338.08 1353.35) rotate(180)"/><rect class="cls-4" x="669.04" y="687.84" width="42.35" height="22.33" transform="translate(1380.43 1398) rotate(180)"/><path id="Path-33" class="cls-2" d="M800.72,731.23c-16.41-.48-34.49-.88-39.13-1.7a141.73,141.73,0,0,0-19.21-1.75l-3.61,69.38a2.12,2.12,0,0,0,1.91,2.2,1.91,1.91,0,0,0,1.64-.66Q778.7,756.61,783.41,757l25.24.44"/><path id="Path-33-2" data-name="Path-33" class="cls-4" d="M793.16,731.49q-24.61-.74-31.57-2a141.73,141.73,0,0,0-19.21-1.75l-3.61,69.38a2.12,2.12,0,0,0,1.91,2.2,1.91,1.91,0,0,0,1.64-.66Q778.7,756.61,783.41,757l14.09-.3"/><path id="Path-32" class="cls-2" d="M856.17,902.17l2.66,13.45c.6,3,.22,29.92,2.95,30.64s80.67,5.69,71.08-1.67-44.43-30.75-45.64-36.84c-2.37-2.36-3.54-14.09-3.54-14.09Z"/><path class="cls-3" d="M935.44,749.83c-5.47-34.76-48.2-136.6-56-144.05-9.26-8.86-113.07,5.84-113.07,5.84L809.7,722.71l-31.21.65c-.89,12.68,1.67,41.64,4.38,49.42l40.69-3.39,24,134q24.5-2,36.1-5.08t15.64-8.57L876.77,764.94l49.66-4.15A9.5,9.5,0,0,0,935.44,749.83Zm-72.62-38.49-14.38-50.47L872,710.42Z"/><polygon id="Path-36" class="cls-2" points="811.68 454.94 824.26 453.93 829.42 429.6 826.21 423.57 825.89 415.79 820.36 413.92 818.69 408.01 821.5 402.73 823.65 401.45 823.48 391.13 861.78 396.88 863.71 398.59 866.52 409.4 866.72 420.98 862.26 429.81 856.65 434.58 849.56 437.16 847.3 436.39 843.12 458.73 859.63 461.47 841.02 475.24 808.4 469.23 811.68 454.94"/><path id="Path-20" class="cls-4" d="M816.7,454.23q4.62-.25,7.56-.3c1.87-7.05,5.16-24.33,5.16-24.33a19.89,19.89,0,0,1-3.21-6,28.54,28.54,0,0,1-.28-7.73q-9.12-2.31-6.68-9.46t10.26-3.62"/><path id="Path-21" class="cls-4" d="M865,404.57q3.93,12,.8,19-7.23,14-19.34,13.18l-3.31,22,8.33,1.31"/><path id="Path-22" class="cls-4" d="M823.61,398.28a13,13,0,0,1,7.89,1"/><path id="Path-23" class="cls-3" d="M823,395.36a26.59,26.59,0,0,1,10.86.79q1-1.77,2.4-3.91,6,12.67,27.34,7.16c21.32-5.51,9-42.52-12.8-35.18q-11.85,4.17-14.35,8.4-7.94-1.47-10.78,2.42Q820.65,380,823,395.36Z"/><path class="cls-2" d="M969.33,493.65c-10.91,3-18.41,11.61-20.64,15.94s-4.11,7.61-8.37,10.86c-9.38,5.17-37.86,17.76-51.16,29.37-1-3.73-2.37-22.16-2.37-22.16s-26.2,14.65-26.56,18.35c-.3,3.08,4.69,22.47,7,26.27l0,0c.32.53.66,1.05,1,1.57h0c3.61,5.4,4.36,7,13.41,8.93,5.12,1.77,33.45-11.19,72.53-53.58,13.68-9.12,17.93-6.92,28.68-23.07S980.24,490.6,969.33,493.65Z"/><path class="cls-4" d="M867.16,572.3c3.63,5.93,4.49,8.41,14.42,10.51,5.12,1.77,33.45-11.19,72.53-53.58,13.68-9.12,17.93-6.92,28.68-23.07s-2.55-15.56-13.46-12.51-18.41,11.61-20.64,15.94-4.11,7.61-8.37,10.86c-11,6-46.66,24.37-56.35,34.94"/><line class="cls-4" x1="888.53" y1="538.21" x2="889.11" y2="549.87"/><path class="cls-5" d="M765.76,618.68l1.41.47,114.72-12.68c-1.94-20.08,2.24-68,2.38-88.31,0,0,4.89-33.42,1.05-47.63,0,0-20.71-10.33-28.12-9.77L857,461c-3.83,6.22-9,9-23.23,8.84q-14-.21-21.94-14.94c-.2-.37-.39-.73-.58-1.11-30.27,3.89-35.5,8.81-40.88,12.11l-1.1,56.29Z"/><path id="Path-32-2" data-name="Path-32" class="cls-4" d="M857.17,907.23l1.66,8.39c.6,3,.22,29.92,2.95,30.64s80.67,5.69,71.08-1.67-44.43-30.75-45.64-36.84l-.51-4.13"/><path id="Path-26" class="cls-2" d="M751.15,535.74l-4.77,16.79,17.45,89.93s5.29,20.65,13,28.78c11.5,12.2,17.18-.39,15.87-9.79s-6.36-15-11.07-19.79-5.63-7.09-5.63-7.09c.81-4.23-.27-50.21,1.54-75.13L785,545.31"/><path id="Path-26-2" data-name="Path-26" class="cls-4" d="M749.86,541l-3.48,11.54,17.45,89.93s5.29,20.65,13,28.78c11.5,12.2,17.18-.39,15.87-9.79s-6.36-15-11.07-19.79-5.63-7.09-5.63-7.09c.81-4.23-.27-50.21,1.54-75.13l3.6-7.25"/><path class="cls-5" d="M767.94,467.68c-15,8.62-23,68.59-23,68.59l42.79,11.24C796,537.27,804.38,489,803.68,485S780,460.19,767.94,467.68Z"/><path class="cls-5" d="M885.32,470.53c3.79,1.77,10,60.54,10,60.54l-20.65,4.67S881.52,468.76,885.32,470.53Z"/><path class="cls-5" d="M953.33,525.44l14.77,1.5c1.89.2,3.61-.55,3.93-1.7l12.54-45c.35-1.28-1.13-2.54-3.23-2.76L966.57,476c-1.89-.19-3.61.55-3.93,1.71l-12.54,45C949.75,524,951.23,525.23,953.33,525.44Z"/><path class="cls-3" d="M954.23,524.06l10.83,1.22a2.71,2.71,0,0,0,3-1.65l11.61-42.24c.33-1.2-.69-2.36-2.23-2.54l-10.82-1.21a2.71,2.71,0,0,0-3,1.64L952,521.52C951.67,522.72,952.7,523.89,954.23,524.06Z"/><path class="cls-5" d="M696.3,953c-4.79-5.94-7.11-14.31-3.56-21.23a26.94,26.94,0,0,1,5.72-6.73c9.8-8.94,24.14-13.25,37-9.14,7.11,2.45,7.24,3.48,3.3,9.69a198.05,198.05,0,0,1-16.48,23.28c-.46.6-1.16,1.39-1.68,2-3.33,3.84-8.55,3.86-13.61,4.16a63.29,63.29,0,0,1-7.1-.15A4.92,4.92,0,0,1,696.3,953Z"/><path class="cls-5" d="M696.3,954.86c-6.16.26-16.71.92-20.71-4a180.13,180.13,0,0,1-16-21.76,82,82,0,0,1-4.42-7.46,2.81,2.81,0,0,1,1.13-3.84c10.79-5.56,24-4,34.24,2,5,3.09,9.86,6.85,12.86,12a16.6,16.6,0,0,1,1.63,9.33,22.29,22.29,0,0,1-3,8.65c-1.15,2-3,5.1-5.75,5.08Z"/><path class="cls-8" d="M702.43,946.58q12.3-18.18,34.51-25.77"/><path class="cls-8" d="M693.72,946.58q-12.3-18.18-34.52-25.77"/></svg>